<?xml version="1.0" standalone="no"?><!DOCTYPE svg PUBLIC "-//W3C//DTD SVG 1.1//EN" "http://www.w3.org/Graphics/SVG/1.1/DTD/svg11.dtd"><svg t="1705596195185" class="icon" viewBox="0 0 1092 1024" version="1.1" xmlns="http://www.w3.org/2000/svg" p-id="17161" xmlns:xlink="http://www.w3.org/1999/xlink" width="68.25" height="64"><path d="M32.5632 575.556267h420.6592a31.880533 31.880533 0 0 0 32.221867-32.1536 31.880533 31.880533 0 0 0-32.1536-32.1536L33.450667 511.317333a25.258667 25.258667 0 0 0-5.461334-0.682666c-14.199467 0-27.579733 14.1312-27.579733 29.149866 0 19.114667 15.018667 35.771733 32.085333 35.771734z m0-179.8144h420.6592a31.880533 31.880533 0 0 0 32.221867-32.1536 31.880533 31.880533 0 0 0-32.1536-32.1536l-419.84 0.068266a24.234667 24.234667 0 0 0-5.393067-0.682666c-14.199467 0-27.648 14.199467-27.648 29.218133 0 18.978133 15.018667 35.703467 32.085333 35.703467z m61.098667-179.746134h420.727466a31.880533 31.880533 0 0 0 32.085334-32.085333 31.880533 31.880533 0 0 0-32.085334-32.221867l-420.113066 0.136534a27.989333 27.989333 0 0 0-6.007467-0.682667c-16.7936 0-26.760533 14.813867-26.760533 29.0816 0 21.026133 13.243733 35.771733 32.085333 35.771733z" fill="#3151AA" p-id="17162"></path><path d="M1083.665067 500.5312a10.0352 10.0352 0 0 1-1.4336-3.822933V495.616l-238.318934-335.6672c-8.192-8.192-16.5888-8.192-23.893333-8.192h-122.538667V32.768a31.880533 31.880533 0 0 0-32.085333-32.1536H183.5008a31.880533 31.880533 0 0 0-32.085333 32.085333c0 15.837867 11.8784 32.221867 32.085333 32.221867h446.0544v474.794667c0 20.138667 16.247467 32.085333 32.085333 32.085333h356.215467v201.796267h-58.5728a154.282667 154.282667 0 0 0-150.186667-118.510934c-71.68 0-134.280533 49.629867-150.1184 118.510934H419.976533a154.282667 154.282667 0 0 0-150.186666-118.510934 154.2144 154.2144 0 0 0-150.050134 118.510934H32.5632a31.880533 31.880533 0 0 0-32.085333 32.1536c0 20.2752 16.247467 32.221867 32.085333 32.221866h90.794667a154.350933 154.350933 0 0 0 300.168533 0h239.2064a154.282667 154.282667 0 0 0 300.168533 0h90.794667a31.9488 31.9488 0 0 0 32.1536-32.1536V507.357867a14.813867 14.813867 0 0 0-2.184533-6.826667z m-386.184534 7.099733V216.064h106.427734l207.2576 291.6352h-313.685334v-0.068267z m201.864534 301.738667a85.6064 85.6064 0 0 1-86.562134 86.562133 85.6064 85.6064 0 0 1-86.562133-86.493866 85.6064 85.6064 0 0 1 86.562133-86.493867 85.6064 85.6064 0 0 1 86.562134 86.493867z m-539.374934 0a85.6064 85.6064 0 0 1-86.493866 86.562133 85.6064 85.6064 0 0 1-86.493867-86.493866 85.6064 85.6064 0 0 1 86.493867-86.493867 85.6064 85.6064 0 0 1 86.493866 86.493867z" fill="#3151AA" p-id="17163"></path></svg>