<?xml version="1.0" standalone="no"?><!DOCTYPE svg PUBLIC "-//W3C//DTD SVG 1.1//EN" "http://www.w3.org/Graphics/SVG/1.1/DTD/svg11.dtd"><svg t="1705594682276" class="icon" viewBox="0 0 1024 1024" version="1.1" xmlns="http://www.w3.org/2000/svg" p-id="8841" xmlns:xlink="http://www.w3.org/1999/xlink" width="64" height="64"><path d="M774.144 554.3936c80.0768-1.2288 154.624 40.5504 194.9696 109.7728 40.3456 69.2224 40.3456 154.624 0 223.8464s-114.8928 111.0016-194.9696 109.7728c-80.0768 1.2288-154.624-40.5504-194.9696-109.7728-40.3456-69.2224-40.3456-154.624 0-223.8464s114.8928-111.2064 194.9696-109.7728zM612.9664 26.2144c76.8 0 138.8544 62.2592 138.8544 138.8544v110.7968c6.9632 74.752-17.8176 148.8896-68.1984 204.3904-50.5856 55.5008-122.0608 87.04-197.0176 87.04l-24.7808-1.2288c-185.1392 1.6384-366.7968 186.5728-367.4112 372.9408v23.3472c0 19.456-15.7696 35.0208-35.0208 35.0208-19.456 0-35.0208-15.7696-35.0208-35.0208v-23.3472c0.4096-169.7792 130.048-352.4608 294.912-416.1536l11.8784-4.7104-9.6256-7.9872c-68.8128-53.8624-106.9056-138.0352-101.7856-225.28l-0.2048 7.168H134.5536c-19.456 0-29.696-9.0112-30.9248-27.2384l-0.2048-4.096c0-20.6848 10.4448-31.1296 31.1296-31.1296h85.4016V165.0688c0-74.1376 58.368-135.168 132.5056-138.6496l6.5536-0.2048h253.952z m88.8832 778.0352h-91.7504l1.8432 8.192c14.1312 62.8736 63.0784 112.0256 125.952 126.3616l8.6016 2.048h0.2048v-91.3408l-4.096-1.8432c-17.2032-7.7824-31.1296-21.7088-38.912-38.912l-1.8432-4.5056z m236.544 0h-94.208v6.3488c-7.9872 16.1792-21.2992 29.0816-37.6832 36.4544l-4.096 1.8432V940.032l8.6016-1.8432c62.464-14.336 111.2064-63.0784 125.5424-125.3376l1.8432-8.6016z m-134.7584-57.7536c-11.6736-11.6736-29.0816-15.36-44.4416-9.6256s-26.0096 20.0704-27.0336 36.4544 7.5776 31.9488 22.1184 39.7312l5.3248 2.6624-2.2528 2.2528h16.9984l-0.4096-0.4096c23.1424 0 41.7792-18.8416 41.984-41.984-0.2048-10.8544-4.5056-21.504-12.288-29.0816z m-29.2864-137.0112c-77.824 0-145.408 54.0672-162.4064 130.048l-1.8432 8.6016 91.7504-0.2048 1.8432-4.096c12.6976-27.648 40.3456-45.4656 70.656-45.6704 11.0592 0 21.9136 2.2528 31.9488 6.7584 17.2032 7.7824 31.1296 21.7088 38.912 38.912l1.8432 4.096h91.7504l-1.8432-8.6016c-17.2032-75.776-84.7872-129.8432-162.6112-129.8432z m-89.4976-317.8496H394.24c-2.2528 0.2048-4.7104 0.4096-7.168 0.4096h-96.6656v5.7344c0.2048 106.0864 84.3776 193.1264 190.464 196.8128l7.168 0.2048c108.7488-0.2048 196.608-88.2688 197.0176-197.0176v-6.144z m-71.8848-202.752H358.8096c-42.1888 0-76.1856 34.2016-76.3904 76.1856v64.512h406.9376V165.0688c-0.2048-41.984-34.2016-76.1856-76.3904-76.1856z m0 0" p-id="8842" fill="#ffffff"></path></svg>