<?xml version="1.0" standalone="no"?><!DOCTYPE svg PUBLIC "-//W3C//DTD SVG 1.1//EN" "http://www.w3.org/Graphics/SVG/1.1/DTD/svg11.dtd"><svg t="1705596639815" class="icon" viewBox="0 0 1024 1024" version="1.1" xmlns="http://www.w3.org/2000/svg" p-id="20049" xmlns:xlink="http://www.w3.org/1999/xlink" width="64" height="64"><path d="M312.195 835.436C140.255 835.436 0.859 758.711 0.08 663.884 0.04 700.096 0 731.785 0 731.785c0 95.219 139.748 172.332 312.195 172.332S624.39 827.004 624.39 731.785v-68.681c0 95.219-139.747 172.332-312.195 172.332z m0 119.883C140.255 955.319 0.859 878.594 0.08 783.767 0.04 819.979 0 851.668 0 851.668 0 946.887 139.748 1024 312.195 1024S624.39 946.887 624.39 851.668v-68.681c0 95.219-139.747 172.332-312.195 172.332zM711.805 755.514c-10.03 0-19.94-0.316-29.735-0.823-0.432 2.969-0.316 6.05-0.899 9.015a60.31 60.31 0 0 1 3.161 19.281v40.429c9.055 0.468 18.186 0.779 27.473 0.779 172.448 0 312.195-77.113 312.195-172.332v-68.681c0 95.219-139.747 172.332-312.195 172.332z" p-id="20050" fill="#F17C0D"></path><path d="M711.805 635.631c-10.03 0-19.94-0.316-29.735-0.823-0.432 2.969-0.316 6.05-0.899 9.015a60.494 60.494 0 0 1 3.161 19.281v40.429c9.055 0.468 18.186 0.779 27.473 0.779C884.253 704.312 1024 627.2 1024 531.98V463.3c0 95.219-139.747 172.331-312.195 172.331zM711.805 395.865c-171.94 0-311.336-76.725-312.115-171.552-0.04 36.213-0.08 67.902-0.08 67.902 0 40.664 25.679 77.972 68.333 107.475 43.198 11.784 81.6 28.408 113.597 49.012 39.689 10.07 83.71 15.845 130.265 15.845 172.448 0 312.195-77.113 312.195-172.332v-68.681c0 95.219-139.747 172.331-312.195 172.331z" p-id="20051" fill="#F17C0D"></path><path d="M711.805 515.748a559.66 559.66 0 0 1-61.308-3.357c15.845 21.891 26.538 45.735 31.102 71.179 9.954 0.547 20.02 0.859 30.206 0.859 172.448 0 312.195-77.113 312.195-172.332v-68.681c0 95.22-139.747 172.332-312.195 172.332zM711.805 0C539.357 0 399.61 77.113 399.61 172.332s139.748 172.332 312.195 172.332S1024 267.551 1024 172.332 884.253 0 711.805 0zM312.195 439.571C139.748 439.571 0 516.683 0 611.902s139.748 172.332 312.195 172.332S624.39 707.121 624.39 611.902 484.643 439.571 312.195 439.571z" p-id="20052" fill="#F17C0D"></path></svg>