<?xml version="1.0" standalone="no"?><!DOCTYPE svg PUBLIC "-//W3C//DTD SVG 1.1//EN" "http://www.w3.org/Graphics/SVG/1.1/DTD/svg11.dtd"><svg t="1706303851914" class="icon" viewBox="0 0 1024 1024" version="1.1" xmlns="http://www.w3.org/2000/svg" p-id="15751" xmlns:xlink="http://www.w3.org/1999/xlink" width="64" height="64"><path d="M766.7 580.4V122.8c0-22.4-17.3-40.6-38.6-40.6H101.9c-21.3 0-38.6 18.2-38.6 40.6v457.6c0 22.4 17.3 40.6 38.6 40.6h128.4l0.2 175.9 144-175.9h353.6c21.3 0 38.6-18.2 38.6-40.6z m-51.8-11.2h-365l-67.8 82.9-0.1-82.9H115V134h599.8v435.2z" fill="#ffffff" p-id="15752"></path><path d="M208 347.8a36 36.4 0 1 0 72 0 36 36.4 0 1 0-72 0Z" fill="#ffffff" p-id="15753"></path><path d="M415 347.8m-36.4 0a36.4 36.4 0 1 0 72.8 0 36.4 36.4 0 1 0-72.8 0Z" fill="#ffffff" p-id="15754"></path><path d="M585.6 347.8m-36.4 0a36.4 36.4 0 1 0 72.8 0 36.4 36.4 0 1 0-72.8 0Z" fill="#ffffff" p-id="15755"></path><path d="M891.3 414.4h-75.5v51.8h75.5c9.7 0 17.6 9.5 17.6 21.1v242.2c0 11.6-7.9 21.1-17.6 21.1h-85.8v64.2l-62.8-64.2H592.9c-9.7 0-17.5-9.5-17.5-21.1v-69.8h-51.8v69.8c0 40.2 31.1 72.9 69.3 72.9H721l136.3 139.4V802.4h34c38.2 0 69.3-32.7 69.3-72.9V487.3c0.1-40.2-31-72.9-69.3-72.9z" fill="#ffffff" p-id="15756"></path></svg>