<?xml version="1.0" standalone="no"?><!DOCTYPE svg PUBLIC "-//W3C//DTD SVG 1.1//EN" "http://www.w3.org/Graphics/SVG/1.1/DTD/svg11.dtd"><svg t="1705681257807" class="icon" viewBox="0 0 1024 1024" version="1.1" xmlns="http://www.w3.org/2000/svg" p-id="7367" xmlns:xlink="http://www.w3.org/1999/xlink" width="64" height="64"><path d="M1019.518975 776.448249a32.005968 32.005968 0 0 0-24.249976-24.548975l-305.985692-69.187931c-12.146988-2.746997-24.796975 1.794998-32.399968 11.658989a204.939794 204.939794 0 0 0-21.794978 35.076964c-7.425993 15.185985-25.359974 22.102978-40.960959 15.595985-71.067929-29.64197-135.034864-72.893927-188.64581-126.502873l-0.009-0.002-0.002-0.009c-53.612946-53.612946-96.867903-117.582882-126.511873-188.65481-6.506993-15.600984 0.41-33.534966 15.594985-40.960959a204.903794 204.903794 0 0 0 35.079964-21.797978c9.86399-7.602992 14.404986-20.25198 11.657989-32.399968L272.100726 28.731001a32.003968 32.003968 0 0 0-24.548975-24.249976A205.438793 205.438793 0 0 0 203.175796 0.00703C90.828909 0.882029-0.363 95.189934 0.004 207.539821c1.473999 450.259547 366.197632 814.98318 816.458179 816.456179 112.349887 0.367 206.656792-90.825909 207.529791-203.172796a205.366793 205.366793 0 0 0-4.472995-44.374955zM917.508077 918.713106C890.294104 945.335079 854.65314 960.000064 817.161178 960.000064h-0.487999c-101.500898 0-199.913799-20.446979-292.503706-59.781939-89.48691-38.016962-169.889829-92.322907-238.97576-161.408838-69.085931-69.085931-123.392876-149.48985-161.408838-238.97576C84.449915 407.24362 64.335935 308.830719 64.003936 207.330821c-0.123-37.593962 14.485985-73.348926 41.136958-100.675898 26.539973-27.214973 61.532938-42.360957 98.532901-42.648957L204.799794 64.000966c3.249997 0 6.498993 0.111 9.73499 0.332999l59.48994 263.080736a138.75986 138.75986 0 0 1-7.588992 4.004996c-45.589954 22.293978-66.036934 76.361923-46.546953 123.089876 30.21797 72.449927 72.767927 138.013861 126.624872 195.161804l27.258973 27.289972c57.276942 54.102946 123.036876 96.835903 195.715803 127.148872 11.735988 4.895995 24.121976 7.377993 36.810963 7.376993a95.914904 95.914904 0 0 0 50.366949-14.302986 96.056903 96.056903 0 0 0 35.913964-39.62296 138.95286 138.95286 0 0 1 4.002996-7.583992l263.082736 59.48694c0.246 3.608996 0.356 7.232993 0.327999 10.860989-0.286 36.922963-15.374985 71.865928-42.485957 98.387901zM527.495469 64.263965C762.599233 72.254957 951.745043 261.400767 959.736035 496.504531c0.293 8.633991 7.344993 15.495984 15.983984 15.495984h32.020967c9.012991 0 16.282984-7.442993 15.998984-16.451983C1015.225979 225.855803 798.144197 8.773021 528.450468 0.26003 519.442478-0.02397 511.999485 7.246023 511.999485 16.259014v32.020967c0 8.638991 6.860993 15.689984 15.495984 15.983984z" fill="#01EDFD" p-id="7368"></path><path d="M527.19147 192.354837c164.642834 7.694992 296.758702 139.810859 304.453693 304.453693 0.398 8.511991 7.451993 15.191985 15.973984 15.191985h32.031968c9.114991 0 16.380984-7.603992 15.991984-16.710983-8.511991-198.7838-168.147831-358.420639-366.931631-366.931631-9.105991-0.39-16.710983 6.876993-16.710983 15.991984v32.031968c-0.001 8.520991 6.677993 15.574984 15.190985 15.972984z" fill="#01EDFD" p-id="7369"></path><path d="M526.78747 320.561708c94.247905 7.178993 169.47183 82.402917 176.650822 176.650822 0.634999 8.341992 7.580992 14.787985 15.946984 14.787985h32.085968c9.207991 0 16.576983-7.756992 15.975984-16.945983-8.356992-127.883871-110.618889-230.144769-238.50176-238.50176-9.187991-0.599999-16.945983 6.767993-16.945983 15.975984v32.085968c0 8.365992 6.446994 15.311985 14.787985 15.946984z" fill="#01EDFD" p-id="7370"></path></svg>