<?xml version="1.0" standalone="no"?><!DOCTYPE svg PUBLIC "-//W3C//DTD SVG 1.1//EN" "http://www.w3.org/Graphics/SVG/1.1/DTD/svg11.dtd"><svg t="1706303218392" class="icon" viewBox="0 0 1024 1024" version="1.1" xmlns="http://www.w3.org/2000/svg" p-id="13402" xmlns:xlink="http://www.w3.org/1999/xlink" width="64" height="64"><path d="M3.723636 646.097455v44.357818L731.042909 930.909091l291.700364-239.290182v-54.690909l-300.962909 246.039273L3.723636 646.097455z m0-132.887273v44.311273l727.365819 241.105454 291.700363-239.243636V504.552727l-300.962909 246.085818L3.723636 513.210182z m0-132.840727v44.264727l727.365819 240.64 291.700363-239.383273V371.153455l-300.962909 246.039272L3.723636 380.369455zM97.186909 280.669091L307.665455 138.612364l627.665454 171.706181-212.293818 175.848728L97.233455 280.669091zM1024 291.188364L299.054545 93.090909 0 293.701818l727.970909 239.848727L1024 291.188364zM507.066182 338.525091c-43.054545 12.939636-83.083636 6.144-89.227637-15.36-6.144-21.550545 23.412364-48.593455 66.46691-61.533091 43.101091-12.846545 83.083636-6.144 89.227636 15.36 6.144 21.550545-23.365818 49.245091-66.466909 62.138182v-0.605091z m-33.838546-115.618909c-67.072 22.109091-111.383273 70.749091-98.443636 113.757091 12.893091 43.101091 76.893091 61.533091 143.965091 41.890909 67.025455-19.735273 110.778182-72.005818 96.628364-113.245091-14.196364-41.192727-75.682909-62.091636-142.149819-42.402909z" fill="#ffffff" p-id="13403"></path></svg>