<?xml version="1.0" standalone="no"?><!DOCTYPE svg PUBLIC "-//W3C//DTD SVG 1.1//EN" "http://www.w3.org/Graphics/SVG/1.1/DTD/svg11.dtd"><svg t="1706365686514" class="icon" viewBox="0 0 1024 1024" version="1.1" xmlns="http://www.w3.org/2000/svg" p-id="5412" xmlns:xlink="http://www.w3.org/1999/xlink" width="64" height="64"><path d="M971.987433 306.069996l-173.933554-184.697509a165.088709 165.088709 0 0 0-120.184332-51.90631H346.13144a165.088709 165.088709 0 0 0-120.181509 51.90631L52.013555 306.069996a165.085887 165.085887 0 0 0-5.884333 219.766442l339.804018 401.901373a165.088709 165.088709 0 0 0 252.131686 0L977.871766 525.836438a165.085887 165.085887 0 0 0-5.881511-219.766442z m-191.431331 94.660155l-279.978552 279.981374a59.562999 59.562999 0 0 1-45.085 17.376422 59.560177 59.560177 0 0 1-45.084999-17.376422l-97.716621-97.716621a59.783133 59.783133 0 0 1 0-84.54531 59.785955 59.785955 0 0 1 84.548132 0l58.250666 58.250666 240.521064-240.515419a59.783133 59.783133 0 0 1 84.548132 0 59.78031 59.78031 0 0 1 0 84.54531z" fill="#01EDFD" p-id="5413"></path></svg>