<?xml version="1.0" standalone="no"?><!DOCTYPE svg PUBLIC "-//W3C//DTD SVG 1.1//EN" "http://www.w3.org/Graphics/SVG/1.1/DTD/svg11.dtd"><svg t="1705596879624" class="icon" viewBox="0 0 1024 1024" version="1.1" xmlns="http://www.w3.org/2000/svg" p-id="21160" xmlns:xlink="http://www.w3.org/1999/xlink" width="64" height="64"><path d="M490.666667 85.333333c-111.914667 0-221.376 41.408-300.202667 136.96C111.637333 317.845333 64 464.426667 64 672v106.666667C64 843.093333 116.906667 896 181.333333 896h200.106667c39.04 26.752 83.2 42.666667 130.56 42.666667a32 32 0 1 0 0-64c-34.282667 0-67.157333-11.648-97.344-33.066667a32 32 0 0 0-8.405333-6.186667 267.541333 267.541333 0 0 1-50.346667-52.864c-43.306667-59.328-73.344-144.405333-78.613333-240.298666a32 32 0 0 0-30.997334-30.72 32 32 0 0 0-32.917333 34.218666c5.866667 107.008 38.826667 203.264 90.88 274.56 2.986667 4.053333 6.293333 7.765333 9.408 11.690667H181.333333A52.864 52.864 0 0 1 128 778.666667v-106.666667c0-197.76 45.461333-328.512 111.829333-408.96C306.197333 182.613333 394.048 149.333333 490.666667 149.333333c48 0 79.530667 11.733333 99.114666 22.613334 19.626667 10.901333 25.216 18.709333 25.216 18.709333A32 32 0 0 0 640 202.666667c46.954667 0 148.48 34.944 208.853333 182.741333a32 32 0 1 0 59.221334-24.149333C842.816 201.429333 730.176 145.898667 652.416 140.8c-6.229333-6.421333-11.242667-13.482667-31.530667-24.746667C592.469333 100.266667 549.333333 85.333333 490.666667 85.333333z m118.122666 213.333334a32 32 0 0 0-22.037333 8.085333c-39.637333 35.242667-109.610667 56.853333-169.450667 67.029333C357.44 384 309.333333 384 309.333333 384a32 32 0 1 0 0 64s53.226667 0.021333 118.698667-11.114667c60.245333-10.261333 131.456-30.016 186.453333-71.936 11.264 2.325333 33.28 7.893333 60.714667 26.752C711.168 416.426667 746.666667 457.472 746.666667 544v106.666667c0 53.397333-42.602667 96-96 96h-39.253334a74.666667 74.666667 0 0 0-67.413333-42.666667 74.666667 74.666667 0 1 0 0 149.333333 74.666667 74.666667 0 0 0 67.370667-42.666666H650.666667c84.394667 0 153.898667-66.282667 159.466666-149.333334H810.666667a85.333333 85.333333 0 0 0 85.333333-85.333333v-42.666667a85.333333 85.333333 0 0 0-85.333333-85.333333h-16.341334c-18.645333-51.178667-50.730667-86.954667-82.858666-109.034667-49.386667-33.962667-99.498667-40.042667-99.498667-40.042666a32 32 0 0 0-3.178667-0.256zM405.333333 533.333333a42.666667 42.666667 0 0 0 0 85.333334 42.666667 42.666667 0 0 0 0-85.333334z m213.333334 0a42.666667 42.666667 0 0 0 0 85.333334 42.666667 42.666667 0 0 0 0-85.333334z m308.842666 127.552A32 32 0 0 0 896 693.333333v85.333334c0 29.824-23.509333 53.333333-53.333333 53.333333H768a32 32 0 1 0 0 64h74.666667c64.426667 0 117.333333-52.906667 117.333333-117.333333v-85.333334a32 32 0 0 0-32.490667-32.448z" p-id="21161" fill="#059669"></path></svg>